<mxfile host="app.diagrams.net" modified="2024-04-09T03:32:57.120Z" agent="Mozilla/5.0 (Macintosh; Intel Mac OS X 10_15_7) AppleWebKit/537.36 (KHTML, like Gecko) Chrome/105.0.0.0 Safari/537.36" version="24.2.3" etag="yplByWFbAUmcgYaDgx_C" type="github">
  <diagram name="第 1 页" id="hALWSxLhFQGmDRPfx3A2">
    <mxGraphModel>
      <root>
        <mxCell id="0" />
        <mxCell id="1" parent="0" />
      </root>
    </mxGraphModel>
  </diagram>
</mxfile>
